<svg width="22" height="22" viewBox="0 0 22 22" fill="none" xmlns="http://www.w3.org/2000/svg">
<path d="M20.2961 1.63786C19.1058 0.447537 17.1695 0.447537 15.9713 1.63786L11.0037 6.60547L6.02812 1.63786C4.8378 0.447537 2.90155 0.447537 1.70329 1.63786C0.512966 2.82818 0.512966 4.76444 1.70329 5.96269L6.6709 10.9303L1.71122 15.8979C0.520902 17.0882 0.520902 19.0245 1.71122 20.2227C2.30638 20.8179 3.092 21.1195 3.86967 21.1195C4.65529 21.1195 5.43296 20.8179 6.02812 20.2227L10.9957 15.2551L15.9633 20.2227C16.5585 20.8179 17.3441 21.1195 18.1218 21.1195C18.9074 21.1195 19.6851 20.8179 20.2802 20.2227C21.4706 19.0324 21.4706 17.0962 20.2802 15.8979L15.3126 10.9303L20.2802 5.96269C21.4864 4.76444 21.4864 2.82818 20.2961 1.63786Z" fill="white"/>
</svg>
