<svg width="18" height="29" viewBox="0 0 18 29" fill="none" xmlns="http://www.w3.org/2000/svg">
<g filter="url(#filter0_dd_724_9713)">
<path d="M2.22455 20.9321H7.83718L14.8071 26.8243C15.1385 27.1046 15.5775 27.2522 16.0254 27.2522C16.2494 27.2522 16.4734 27.2144 16.6839 27.1424C17.3289 26.9152 17.75 26.3851 17.75 25.7943V2.46016C17.75 1.86942 17.3289 1.33927 16.6839 1.11206C16.0389 0.884855 15.2953 1.00982 14.8026 1.42637L7.83718 7.32239H2.22455C1.27045 7.32239 0.5 7.97372 0.5 8.7803V19.4742C0.5 20.2808 1.27045 20.9321 2.22455 20.9321ZM3.9491 10.2382H8.5494C9.0063 10.2382 9.44527 10.083 9.76779 9.81031L14.2964 5.98187V22.2726L9.77227 18.4442C9.44975 18.1715 9.01078 18.0163 8.55388 18.0163H3.9491V10.2382Z" fill="#0F4F5E"/>
</g>
<defs>
<filter id="filter0_dd_724_9713" x="0.5" y="0" width="17.25" height="28.252" filterUnits="userSpaceOnUse" color-interpolation-filters="sRGB">
<feFlood flood-opacity="0" result="BackgroundImageFix"/>
<feColorMatrix in="SourceAlpha" type="matrix" values="0 0 0 0 0 0 0 0 0 0 0 0 0 0 0 0 0 0 127 0" result="hardAlpha"/>
<feOffset dy="1"/>
<feColorMatrix type="matrix" values="0 0 0 0 1 0 0 0 0 1 0 0 0 0 1 0 0 0 0.85 0"/>
<feBlend mode="normal" in2="BackgroundImageFix" result="effect1_dropShadow_724_9713"/>
<feColorMatrix in="SourceAlpha" type="matrix" values="0 0 0 0 0 0 0 0 0 0 0 0 0 0 0 0 0 0 127 0" result="hardAlpha"/>
<feOffset dy="-1"/>
<feColorMatrix type="matrix" values="0 0 0 0 0 0 0 0 0 0 0 0 0 0 0 0 0 0 0.75 0"/>
<feBlend mode="normal" in2="effect1_dropShadow_724_9713" result="effect2_dropShadow_724_9713"/>
<feBlend mode="normal" in="SourceGraphic" in2="effect2_dropShadow_724_9713" result="shape"/>
</filter>
</defs>
</svg>
